<svg xmlns="http://www.w3.org/2000/svg" version="1.1" xmlns:xlink="http://www.w3.org/1999/xlink" xmlns:svgjs="http://svgjs.dev/svgjs" width="1000" height="875" viewBox="0 0 1000 875"><g transform="matrix(1,0,0,1,0.6898788682902364,0.35425101214570986)"><svg viewBox="0 0 282 247" data-background-color="#ffffff" preserveAspectRatio="xMidYMid meet" height="875" width="1000" xmlns="http://www.w3.org/2000/svg" xmlns:xlink="http://www.w3.org/1999/xlink"><g id="tight-bounds" transform="matrix(1,0,0,1,-0.19454577202708379,-0.09999999999999432)"><svg viewBox="0 0 282.38909161288495 247.2" height="247.2" width="282.38909161288495"><g><svg viewBox="0 0 395.5199999999999 346.233430765917" height="247.2" width="282.38909161288495"><g transform="matrix(1,0,0,1,0,257.4865460227532)"><svg viewBox="0 0 395.5199999999999 88.7468847431638" height="88.7468847431638" width="395.5199999999999"><g id="textblocktransform"><svg viewBox="0 0 395.5199999999999 88.7468847431638" height="88.7468847431638" width="395.5199999999999" id="textblock"><g><svg viewBox="0 0 395.5199999999999 88.7468847431638" height="88.7468847431638" width="395.5199999999999"><g transform="matrix(1,0,0,1,0,0)"><svg width="395.5199999999999" viewBox="1.2000000476837158 -31.799999237060547 195.6300048828125 43.900001525878906" height="88.7468847431638" data-palette-color="#1ebbd7"><path d="M4.85 4.1L4.85 4.1Q4.3 4.1 4.3 2.2L4.3 2.2Q4.3 1.5 4.4 0.95L4.4 0.95Q1.2-1.5 1.2-6.25L1.2-6.25Q1.2-9.85 3.25-14.4L3.25-14.4Q5.85-20.15 13.4-25.6L13.4-25.6Q22.1-31.8 31.4-31.8L31.4-31.8Q36.4-31.8 39-29.85 41.6-27.9 41.6-25L41.6-25Q41.6-23.2 40.2-20.55L40.2-20.55Q40.6-19.2 40.6-17.8L40.6-17.8Q40.6-11.55 34.2-5.85L34.2-5.85Q28.5-0.75 22.15 1.35L22.15 1.35Q32.3 8.65 35.85 8.65L35.85 8.65Q36.65 8.65 37.3 8.22 37.95 7.8 37.95 7.23 37.95 6.65 37.6 6.15L37.6 6.15Q37.45 5.8 37.45 5.6L37.45 5.6Q37.45 4.9 38.33 5.85 39.2 6.8 39.2 7.85 39.2 8.9 38.2 9.6 37.2 10.3 35.6 10.3L35.6 10.3Q30.4 10.3 19.05 2.25L19.05 2.25Q15.95 2.95 12.1 2.95 8.25 2.95 5.9 1.85L5.9 1.85Q5.2 4.1 4.85 4.1ZM39.55-22.05L39.55-22.05Q40.05-23.25 40.05-24.73 40.05-26.2 38.95-27.75L38.95-27.75Q36.8-30.75 31.35-30.75L31.35-30.75Q23.8-30.75 17.1-26.08 10.4-21.4 6.65-14.3L6.65-14.3Q3.9-9.15 3.9-5.05L3.9-5.05Q3.9-2.45 5-0.85L5-0.85Q5.55-2.2 6.35-3.3L6.35-3.3Q7.6-5.1 9.6-5.1 11.6-5.1 13.65-3.95L13.65-3.95Q16.35-2.5 20.55 0.25L20.55 0.25Q25.9-1.75 30.7-6L30.7-6Q37.05-11.6 37.6-16.85L37.6-16.85Q35-14 28.6-10.05L28.6-10.05 28.2-9.95Q28.15-9.95 28.15-10L28.15-10Q28.15-10.2 29.5-11.35L29.5-11.35 32.3-13.65Q35.9-16.8 37.55-18.8L37.55-18.8Q37.2-21.6 35.02-23.48 32.85-25.35 30.05-26.2L30.05-26.2Q28.65-26.55 25.73-26.65 22.8-26.75 22.8-26.85 22.8-26.95 22.9-27.05L22.9-27.05Q25.2-27.8 27.33-27.8 29.45-27.8 32.2-27.15L32.2-27.15Q37.45-25.9 39.55-22.05ZM17.5 1.2L17.5 1.2Q11.75-2.3 9.65-2.3 7.55-2.3 6.8-0.7L6.8-0.7 6.3 0.5Q8 1.85 10.55 1.9L10.55 1.9Q11.05 1.9 11.55 1.9L11.55 1.9Q14.45 1.9 17.5 1.2ZM53.85 0.3L53.85 0.3Q53.6 0.35 52.77 0.35 51.95 0.35 51.12-0.3 50.3-0.95 50.3-1.98 50.3-3 50.67-4.25 51.05-5.5 51.2-6.15L51.2-6.15Q45.45 0.55 42.2 0.55L42.2 0.55Q40.15 0.55 39.95-2L39.95-2Q39.95-2.2 39.95-2.35L39.95-2.35Q39.95-4.5 42.55-8.15L42.55-8.15Q41.1-6.85 39.6-5.15L39.6-5.15Q39.4-4.95 39.1-4.95L39.1-4.95Q38.9-4.95 38.9-5.2 38.9-5.45 39.35-6.05L39.35-6.05 46.25-14.15Q47.55-15.65 48.9-15.65 50.25-15.65 50.25-14.75L50.25-14.75Q50.25-14.4 49.95-14.1L49.95-14.1Q47.95-12.25 44.92-7.95 41.9-3.65 41.9-1.6L41.9-1.6Q41.9-0.7 42.5-0.7L42.5-0.7Q44.6-0.7 48.6-4.85L48.6-4.85Q50-6.25 53.8-11.03 57.6-15.8 58.8-15.8L58.8-15.8Q60.6-15.8 60.6-14.4L60.6-14.4Q60.6-13.9 58.5-11.5L58.5-11.5Q55.65-8.05 54.15-5.88 52.65-3.7 52.65-2.35 52.65-1 53.4-1L53.4-1Q53.75-1 54.2-1.2L54.2-1.2Q57.65-2.7 62.45-8.2L62.45-8.2Q62.75-8.55 63.05-8.55 63.35-8.55 63.35-8.22 63.35-7.9 63-7.5L63-7.5Q60.85-5 57.95-2.48 55.05 0.05 53.85 0.3ZM71.95-20.4Q72.7-20.4 73.37-19.93 74.05-19.45 74.05-18.8 74.05-18.15 73.42-17.68 72.8-17.2 72.05-17.2 71.3-17.2 70.67-17.75 70.05-18.3 70.05-19L70.05-19Q70.05-20.4 71.95-20.4L71.95-20.4ZM62.9 0.55L62.9 0.55Q60.35 0.55 60.35-2.75L60.35-2.75Q60.35-5.45 63.3-10.23 66.25-15 68.05-15.05L68.05-15.05Q68.55-15.05 69.17-14.65 69.8-14.25 69.8-13.85L69.8-13.85Q69.55-13.5 69.2-13.08 68.84-12.65 68.45-12.15 68.05-11.65 67.34-10.73 66.65-9.8 66-8.95L66-8.95Q62.25-4.1 62.25-2.27 62.25-0.45 63.5-0.45L63.5-0.45Q64.55-0.45 66.34-1.6L66.34-1.6Q70.55-4.2 73-7.3L73-7.3Q73.9-8.45 74.22-8.45 74.55-8.45 74.55-8.05 74.55-7.65 73.4-6.45 72.25-5.25 71.57-4.55 70.9-3.85 70.65-3.63 70.4-3.4 69.72-2.78 69.05-2.15 68.7-1.9 68.34-1.65 67.7-1.15 67.05-0.65 66.55-0.43 66.05-0.2 65.4 0.1L65.4 0.1Q64.34 0.55 62.9 0.55ZM74.34-2.5Q74.34-1 75.99-1 77.64-1 80.24-2.75 82.84-4.5 85.29-7.5L85.29-7.5Q85.89-8.3 86.24-8.3 86.59-8.3 86.59-8L86.59-8Q86.59-7.7 84.54-5.4L84.54-5.4Q79.54 0.1 76.19 0.1L76.19 0.1Q74.54 0.1 73.39-0.68 72.24-1.45 72.24-3.08 72.24-4.7 73.09-6.85L73.09-6.85Q74.54-10.25 77.74-15.4L77.74-15.4Q83.59-24.9 86.04-24.9L86.04-24.9Q86.54-24.9 87.07-24.53 87.59-24.15 87.64-23.7L87.64-23.7Q86.49-22.15 83.22-17.75 79.94-13.35 78.69-11.43 77.44-9.5 76.82-8.55 76.19-7.6 75.89-7.08 75.59-6.55 75.19-5.7L75.19-5.7Q74.34-4 74.34-2.5ZM86.49-2.5Q86.49-1 88.14-1 89.79-1 92.39-2.75 94.99-4.5 97.44-7.5L97.44-7.5Q98.04-8.3 98.39-8.3 98.74-8.3 98.74-8L98.74-8Q98.74-7.7 96.69-5.4L96.69-5.4Q91.69 0.1 88.34 0.1L88.34 0.1Q86.69 0.1 85.54-0.68 84.39-1.45 84.39-3.08 84.39-4.7 85.24-6.85L85.24-6.85Q86.69-10.25 89.89-15.4L89.89-15.4Q95.74-24.9 98.19-24.9L98.19-24.9Q98.69-24.9 99.22-24.53 99.74-24.15 99.79-23.7L99.79-23.7Q98.64-22.15 95.37-17.75 92.09-13.35 90.84-11.43 89.59-9.5 88.97-8.55 88.34-7.6 88.04-7.08 87.74-6.55 87.34-5.7L87.34-5.7Q86.49-4 86.49-2.5ZM100.54 2.95L102.84-2.4Q99.64-0.2 97.74-0.2L97.74-0.2Q95.29-0.2 95.29-2.9L95.29-2.9Q95.29-5 97.94-8.1L97.94-8.1Q100.29-10.7 102.59-12L102.59-12Q108.09-15.05 111.54-15.05L111.54-15.05Q112.64-15.05 112.89-14.2L112.89-14.2 112.89-12.6Q113.74-11.95 113.74-11.78 113.74-11.6 113.59-11.4L113.59-11.4 109.64-7.65Q105.89-3.8 104.49-0.6L104.49-0.6Q104.79-0.7 106.14-0.7 107.49-0.7 108.24 0.48 108.99 1.65 108.99 2.8L108.99 2.8Q108.99 5.2 106.89 8.45L106.89 8.45Q104.59 12.1 101.89 12.1L101.89 12.1Q99.29 12.1 99.29 8.25L99.29 8.25Q99.29 5.9 100.54 2.95L100.54 2.95ZM110.34-12.55L110.34-12.55Q107.79-12.55 102.66-9.22 97.54-5.9 96.84-2.45L96.84-2.45Q96.79-2.3 96.79-2.15L96.79-2.15Q96.79-1.2 97.99-1.2L97.99-1.2Q100.49-1.2 104.69-5.55L104.69-5.55 110.99-12.25Q110.89-12.55 110.34-12.55ZM103.99 0.45L103.99 0.45Q103.04 1.95 101.94 4.75 100.84 7.55 100.84 8.55 100.84 9.55 101.24 10.33 101.64 11.1 102.34 11.1L102.34 11.1Q104.19 11.1 105.59 7.9 106.99 4.7 106.99 3.1 106.99 1.5 106.29 1 105.59 0.5 103.99 0.45ZM127.29 0.3L127.29 0.3Q127.04 0.35 126.21 0.35 125.39 0.35 124.56-0.3 123.74-0.95 123.74-1.98 123.74-3 124.11-4.25 124.49-5.5 124.64-6.15L124.64-6.15Q118.89 0.55 115.64 0.55L115.64 0.55Q113.59 0.55 113.39-2L113.39-2Q113.39-2.2 113.39-2.35L113.39-2.35Q113.39-4.5 115.99-8.15L115.99-8.15Q114.54-6.85 113.04-5.15L113.04-5.15Q112.84-4.95 112.54-4.95L112.54-4.95Q112.34-4.95 112.34-5.2 112.34-5.45 112.79-6.05L112.79-6.05 119.69-14.15Q120.99-15.65 122.34-15.65 123.69-15.65 123.69-14.75L123.69-14.75Q123.69-14.4 123.39-14.1L123.39-14.1Q121.39-12.25 118.36-7.95 115.34-3.65 115.34-1.6L115.34-1.6Q115.34-0.7 115.94-0.7L115.94-0.7Q118.04-0.7 122.04-4.85L122.04-4.85Q123.44-6.25 127.24-11.03 131.04-15.8 132.24-15.8L132.24-15.8Q134.04-15.8 134.04-14.4L134.04-14.4Q134.04-13.9 131.94-11.5L131.94-11.5Q129.09-8.05 127.59-5.88 126.09-3.7 126.09-2.35 126.09-1 126.84-1L126.84-1Q127.19-1 127.64-1.2L127.64-1.2Q131.09-2.7 135.89-8.2L135.89-8.2Q136.19-8.55 136.49-8.55 136.79-8.55 136.79-8.22 136.79-7.9 136.44-7.5L136.44-7.5Q134.29-5 131.39-2.48 128.49 0.05 127.29 0.3ZM147.58-10.6L147.58-10.6Q147.58-8.85 144.23-4.75L144.23-4.75Q140.28 0.1 137.48 0.1L137.48 0.1 136.68 0.1Q135.38 0.1 134.63-1.25L134.63-1.25Q134.03-2.2 134.03-3.35L134.03-3.35Q134.03-6.35 138.41-11.78 142.78-17.2 145.48-17.2L145.48-17.2Q148.03-17.2 148.03-14.5L148.03-14.5Q148.03-13.8 147.78-12.7L147.78-12.7Q147.83-12.55 148.73-12.55 149.63-12.55 151.48-13.5L151.48-13.5Q151.43-12.65 147.53-11.05L147.53-11.05Q147.58-10.85 147.58-10.6ZM144.33-13.2L144.33-13.2Q142.63-13.2 139.51-9.2 136.38-5.2 136.38-3.3 136.38-1.4 137.58-1.4L137.58-1.4Q139.73-1.4 143.03-5.3 146.33-9.2 146.33-10.9L146.33-10.9Q145.53-11.35 144.33-13.2ZM161.63-16.1L161.63-16.1 168.83-16.2Q168.98-16.1 168.98-16.05L168.98-16.05Q168.98-15.6 162.76-14.8 156.53-14 156.03-13.85L156.03-13.85Q155.08-13 152.53-8.78 149.98-4.55 149.98-2.6L149.98-2.6Q149.98-0.75 152.53-0.75L152.53-0.75Q153.73-0.75 155.68-1.5 157.63-2.25 158.68-2.9L158.68-2.9Q161.48-4.65 164.68-8.05L164.68-8.05Q165.38-8.75 165.63-8.75L165.63-8.75Q165.78-8.75 165.78-8.45 165.78-8.15 165.03-7.25L165.03-7.25Q162.43-4.05 159.18-2.1L159.18-2.1Q155.28 0.3 151.73 0.3L151.73 0.3Q150.18 0.3 149.21-0.38 148.23-1.05 148.23-3.1 148.23-5.15 150.03-8.72 151.83-12.3 152.78-14.05L152.78-14.05Q152.08-13.9 151.58-13.9L151.58-13.9Q150.13-13.9 150.13-15.05L150.13-15.05Q150.13-15.9 151.33-16.25L151.33-16.25Q151.48-16.25 151.78-16.3L151.78-16.3 154.68-16.3Q155.58-17.45 156.73-18.95L156.73-18.95Q158.13-20.75 158.63-20.75 159.13-20.75 159.88-20.35 160.63-19.95 160.63-19.4 160.63-18.85 158.23-16.15L158.23-16.15Q159.53-16.1 161.63-16.1ZM165.98 0.65L165.98 0.65Q165.43 0.65 164.98 0.5L164.98 0.5Q161.78-0.4 161.78-3.1L161.78-3.1Q161.78-6.6 166.18-11.2 170.58-15.8 174.08-15.8L174.08-15.8Q175.23-15.8 175.95-15.18 176.68-14.55 176.68-13.65L176.68-13.65Q176.68-10.85 172.45-8.3 168.23-5.75 165.58-5.75L165.58-5.75Q165.18-5.75 164.88-5.85L164.88-5.85Q164.13-4.5 164.13-3L164.13-3Q164.13-0.4 166.6-0.4 169.08-0.4 173.03-3.75L173.03-3.75Q176.08-6.2 178.23-8.95L178.23-8.95Q178.68-9.55 179-9.55 179.33-9.55 179.33-9.25 179.33-8.95 178.93-8.4L178.93-8.4Q176.23-4.85 172.43-2.1 168.63 0.65 165.98 0.65ZM175.43-13.75L175.43-13.75Q175.43-14.35 174.15-14.35 172.88-14.35 170.53-12.4L170.53-12.4Q167.38-9.8 165.63-6.95L165.63-6.95Q165.93-6.85 166.28-6.85L166.28-6.85Q168.18-6.85 171.35-8.88 174.53-10.9 175.33-13.3L175.33-13.3Q175.43-13.55 175.43-13.75ZM187.08-1.8L185.48-0.75Q184.03 0.1 181.9 0.1 179.78 0.1 178.65-1.3 177.53-2.7 176.73-5.75L176.73-5.75Q175.83-4.85 175.48-4.85L175.48-4.85Q175.23-4.85 175.23-5.2 175.23-5.55 175.48-5.8L175.48-5.8Q177.13-7.85 181.08-11.7L181.08-11.7 187.38-17.6Q190.08-20.15 190.58-20.15L190.58-20.15Q192.18-20.15 192.18-18.95L192.18-18.95Q192.18-18.35 191.7-17.78 191.23-17.2 191-16.88 190.78-16.55 190.53-16.25L190.53-16.25Q189.63-14.7 188.7-9.85 187.78-5 187.28-3.1L187.28-3.1Q191.43-3.15 195.83-8.5L195.83-8.5Q196.33-9 196.58-9 196.83-9 196.83-8.68 196.83-8.35 196.38-7.8L196.38-7.8Q193.48-4.4 190.98-3.05L190.98-3.05Q189.48-2.3 187.08-1.8L187.08-1.8ZM178.73-6.3L178.73-6.3Q178.73-4.6 179.85-3.53 180.98-2.45 182.38-2.45 183.78-2.45 184.53-3L184.53-3Q185.53-3.55 186.5-7.6 187.48-11.65 187.68-14.75L187.68-14.75 187.88-16.45Q185.13-14.4 182-11.15 178.88-7.9 178.78-6.85L178.78-6.85Q178.73-6.55 178.73-6.3Z" opacity="1" transform="matrix(1,0,0,1,0,0)" fill="#1ebbd7" class="undefined-text-0" data-fill-palette-color="primary" id="text-0"></path></svg></g></svg></g></svg></g></svg></g><g transform="matrix(1,0,0,1,89.96773655125051,0)"><svg viewBox="0 0 215.5845268974989 215.5845268974989" height="215.5845268974989" width="215.5845268974989"><g><svg></svg></g><g id="icon-0"><svg viewBox="0 0 215.5845268974989 215.5845268974989" height="215.5845268974989" width="215.5845268974989"><g><path d="M0 107.792c0-59.532 48.26-107.792 107.792-107.792 59.532 0 107.792 48.26 107.793 107.792 0 59.532-48.26 107.792-107.793 107.793-59.532 0-107.792-48.26-107.792-107.793zM107.792 207.581c55.112 0 99.789-44.677 99.789-99.789 0-55.112-44.677-99.789-99.789-99.789-55.112 0-99.789 44.677-99.789 99.789 0 55.112 44.677 99.789 99.789 99.789z" data-fill-palette-color="accent" fill="#1ebbd7" stroke="transparent"></path><ellipse rx="106.71434081426196" ry="106.71434081426196" cx="107.79226344874945" cy="107.79226344874945" fill="#1ebbd7" stroke="transparent" stroke-width="0" fill-opacity="1" data-fill-palette-color="accent"></ellipse></g><g transform="matrix(1,0,0,1,49.65928346391199,45.87275417117966)"><svg viewBox="0 0 116.26595996967492 123.83901855513959" height="123.83901855513959" width="116.26595996967492"><g><svg xmlns="http://www.w3.org/2000/svg" xmlns:xlink="http://www.w3.org/1999/xlink" version="1.1" x="0" y="0" viewBox="5.4000091552734375 4.863483428955078 84.99999237060547 90.5365219116211" style="enable-background:new 0 0 100 100;" xml:space="preserve" height="123.83901855513959" width="116.26595996967492" class="icon-s-0" data-fill-palette-color="quaternary" id="s-0"><path d="M5.8 18.8c0 0 3.8-1.7 5.6-2 0 0 30.4-7 57.5 36.3 3.2 5.1 4.9 0-10.4-19.2C45.6 17.7 36.8 13.3 29.1 11 19.1 8.1 6 13.6 6 13.6s6.6-8.3 20-8.7 20.9 2.3 33.7 17.4c4.5 5.2 14.4 19.4 18.8 28.2 5.4 10.9 1.6 12.7 0.3 15.7 4.6 10.1 11.6 24.3 11.6 24.3l-1.6 0.1c0 0-0.5-1.4-1.4-2.1-0.6-0.5-3-1.6-3-1.6s-9.3-18-10.7-19.7c-6.6-1.5-7.6-1.8-11.2-6.5C57.9 54.9 37.2 41.1 35 39.3c-2.1-1.8 15-6.5 15-6.5l-24.2-0.6c0 0-1.6-0.3-12.2-4.8S5.8 18.8 5.8 18.8z" fill="#e6f2f6" data-fill-palette-color="quaternary"></path><path d="M31.2 75.3c0.1-0.4 0.3-0.5 0.4-0.5s0.3-0.1 0.5-0.1c0.4 0 0.9 0.1 1.5 0.4-0.8 0.2-1.6 0.4-2.4 0.6C31.2 75.5 31.2 75.4 31.2 75.3zM31.8 77.2c-0.1 0-0.3-0.1-0.5-0.3 1.4-0.3 2.7-0.6 4.1-0.9 0 0 0.1 0 0.1 0.1C34.5 76.8 32.8 77.5 31.8 77.2zM45.3 76.4l-0.2 0.1c-0.3 0.2-0.8 0.3-1.2 0.2l-0.3 1.2 0.8 0.3c-0.7 0.3-1.5 0.5-2.2 0.6-0.3-0.2-0.5-0.4-0.8-0.5-0.3-0.2-0.7-0.4-1-0.7C42 76.9 43.6 76.5 45.3 76.4zM39.2 78.4c0 0 0-0.1 0.1-0.2 0.3 0.2 0.6 0.4 0.8 0.5H40C39.5 78.7 39.2 78.5 39.2 78.4zM43.7 79.7c0.5-0.1 1-0.3 1.4-0.5l0.2 1.5C44.9 80.4 44.4 80.1 43.7 79.7zM46.5 90.9c-0.6 1.8-2.4 2.8-3.9 3.1-1.8 0.4-3.8 0.2-5.6-0.1-0.5-0.1-1.1-0.2-1.2-0.5-0.2-0.4 0.4-1 1-1.4 2.2-1.4 4.8-2.6 8.3-3.7 0.5-0.2 1.1-0.3 1.6-0.5C46.8 88.9 46.9 89.9 46.5 90.9zM57.7 84.6c-3.4 0.3-6.8 0.9-10.1 1.8L47 82.9 46.7 81l-0.4-2.4 0.1-0.1 1.2-0.7-1.5-0.5L45.9 76l-0.4 0.3-0.1-1.1c-2.1 0.1-4.2 0.6-6 1.5 0 0-0.1 0-0.1 0.1-0.7-0.5-1.4-0.9-2-1.2l0 0c2.6-0.5 5.3-1 7.9-1.4 0.1 0 0.3 0.1 0.5 0.1 0.4 0 0.8-0.1 1-0.4l1.2-1.3-1.8 0.2c-2.9 0.4-5.7 0.9-8.6 1.5 0.2-2.6-1.8-5.1-4.3-6.1-3.7-1.5-7.8-0.4-11.4 0.9-5.7 2.1-11.2 4.7-16.4 7.9L6 78c5.1-3.1 10.6-5.8 16.2-7.8 3.3-1.2 7.2-2.3 10.5-0.9 2.1 0.8 3.8 3.1 3.4 5.2-0.2 0-0.5 0.1-0.7 0.1-1.9-1-3.4-1.4-4.4-1-0.4 0.2-0.9 0.5-1.1 1.4-0.1 0.4-0.1 0.7-0.1 1-2.8 0.7-5.5 1.5-8.3 2.3l0.4 1.2c2.7-0.8 5.4-1.6 8.1-2.3 0.3 0.8 1 1.1 1.4 1.2 1.6 0.5 3.9-0.4 5.1-1.8 0.6 0.3 1.1 0.7 1.7 1C38 78 38 78.4 38 78.6c0.1 0.8 0.8 1.2 1.9 1.4 0.7 0.1 1.4 0.1 2 0 1.5 1 2.7 1.7 3.5 2-0.3 0.6-0.4 0.9-0.1 1.3 0.2 0.2 0.3 0.2 0.5 0.2l0.5 3.2c-0.6 0.2-1.2 0.3-1.8 0.5-3.5 1.1-6.3 2.3-8.6 3.8-1.3 0.9-1.9 2-1.4 2.9 0.5 1 1.6 1.1 2.2 1.2 1.1 0.1 2.3 0.3 3.6 0.3 0.8 0 1.6-0.1 2.5-0.2 2.3-0.5 4.2-2 4.8-3.9 0.4-1.2 0.3-2.6 0.1-3.7 4.4-1.2 9-1.8 13.6-2 0.1 0 24.1 5.6 24.1 5.6l0.3-1.2L65 85.1c0.7-0.3 1.4-0.6 1.9-1.3L66 83c-0.9 1.1-2.6 1.3-4.1 1.3L57.7 84.6z" fill="#e6f2f6" data-fill-palette-color="quaternary"></path></svg></g></svg></g></svg></g></svg></g><g></g></svg></g><defs></defs></svg><rect width="282.38909161288495" height="247.2" fill="none" stroke="none" visibility="hidden"></rect></g></svg></g></svg>